<svg width="127" height="24" viewBox="0 0 127 24" fill="none" xmlns="http://www.w3.org/2000/svg">
<path d="M11.4606 24C9.37877 24 7.59878 23.6354 6.12066 22.9063C4.66336 22.1771 3.48711 21.2292 2.59191 20.0625C1.69671 18.8958 1.04093 17.6354 0.624557 16.2812C0.208186 14.9062 0 13.5833 0 12.3125V11.625C0 10.25 0.208186 8.875 0.624557 7.5C1.06175 6.125 1.72794 4.875 2.62314 3.75C3.51834 2.625 4.68418 1.71875 6.12066 1.03125C7.55714 0.343751 9.27468 0 11.2733 0C14.3128 0 16.7069 0.78125 18.4557 2.34375C20.2252 3.88542 21.2558 5.94792 21.5472 8.53125H18.4244C18.1538 6.59375 17.3523 5.15625 16.0199 4.21875C14.7083 3.28125 13.1261 2.8125 11.2733 2.8125C9.48286 2.8125 7.97352 3.22917 6.74522 4.0625C5.53774 4.875 4.63213 5.97917 4.02839 7.375C3.42466 8.75 3.12279 10.2917 3.12279 12C3.12279 13.625 3.42466 15.1354 4.02839 16.5312C4.65295 17.9271 5.57938 19.0521 6.80768 19.9063C8.05679 20.7604 9.60777 21.1875 11.4606 21.1875C13.4176 21.1875 15.0622 20.6979 16.3946 19.7188C17.727 18.7396 18.5389 17.3229 18.8304 15.4688H21.9532C21.745 17.0312 21.2141 18.4583 20.3606 19.75C19.5278 21.0417 18.362 22.0729 16.863 22.8438C15.3849 23.6146 13.5841 24 11.4606 24Z" fill="#F471FF"/>
<path d="M32.5246 24C31.0673 24 29.7869 23.75 28.6835 23.25C27.5801 22.75 26.6433 22.0938 25.873 21.2813C25.1236 20.4479 24.551 19.5208 24.1555 18.5C23.7808 17.4792 23.5934 16.4375 23.5934 15.375V14.8125C23.5934 13.75 23.7912 12.7083 24.1867 11.6875C24.5823 10.6458 25.1652 9.71875 25.9355 8.90625C26.7058 8.07292 27.6426 7.41667 28.746 6.9375C29.8494 6.4375 31.1089 6.1875 32.5246 6.1875C33.9402 6.1875 35.1997 6.4375 36.3031 6.9375C37.4065 7.41667 38.3434 8.07292 39.1136 8.90625C39.8839 9.71875 40.4669 10.6458 40.8624 11.6875C41.258 12.7083 41.4557 13.75 41.4557 14.8125V15.375C41.4557 16.4375 41.258 17.4792 40.8624 18.5C40.4877 19.5208 39.9152 20.4479 39.1449 21.2813C38.3954 22.0938 37.469 22.75 36.3656 23.25C35.2622 23.75 33.9819 24 32.5246 24ZM32.5246 21.3125C33.7737 21.3125 34.8354 21.0417 35.7098 20.5C36.605 19.9375 37.2816 19.1875 37.7396 18.25C38.2184 17.3125 38.4579 16.2604 38.4579 15.0938C38.4579 13.9063 38.2184 12.8438 37.7396 11.9063C37.2608 10.9688 36.5738 10.2292 35.6786 9.6875C34.8042 9.14583 33.7529 8.875 32.5246 8.875C31.3171 8.875 30.2657 9.14583 29.3705 9.6875C28.4753 10.2292 27.7883 10.9688 27.3095 11.9063C26.8307 12.8438 26.5913 13.9063 26.5913 15.0938C26.5913 16.2604 26.8203 17.3125 27.2783 18.25C27.7571 19.1875 28.4337 19.9375 29.3081 20.5C30.2033 21.0417 31.2754 21.3125 32.5246 21.3125Z" fill="#F471FF"/>
<path d="M45.0277 23.4375V3H42.7168V0.625001H48.0255V23.4375H45.0277Z" fill="#F471FF"/>
<path d="M60.3523 24C58.895 24 57.6146 23.75 56.5112 23.25C55.4078 22.75 54.471 22.0938 53.7007 21.2813C52.9513 20.4479 52.3787 19.5208 51.9832 18.5C51.6085 17.4792 51.4211 16.4375 51.4211 15.375V14.8125C51.4211 13.75 51.6189 12.7083 52.0144 11.6875C52.41 10.6458 52.9929 9.71875 53.7632 8.90625C54.5335 8.07292 55.4703 7.41667 56.5737 6.9375C57.6771 6.4375 58.9366 6.1875 60.3523 6.1875C61.7679 6.1875 63.0274 6.4375 64.1308 6.9375C65.2342 7.41667 66.1711 8.07292 66.9413 8.90625C67.7116 9.71875 68.2945 10.6458 68.6901 11.6875C69.0857 12.7083 69.2834 13.75 69.2834 14.8125V15.375C69.2834 16.4375 69.0857 17.4792 68.6901 18.5C68.3154 19.5208 67.7429 20.4479 66.9726 21.2813C66.2231 22.0938 65.2967 22.75 64.1933 23.25C63.0899 23.75 61.8096 24 60.3523 24ZM60.3523 21.3125C61.6014 21.3125 62.6631 21.0417 63.5375 20.5C64.4327 19.9375 65.1093 19.1875 65.5673 18.25C66.0461 17.3125 66.2856 16.2604 66.2856 15.0938C66.2856 13.9063 66.0461 12.8438 65.5673 11.9063C65.0885 10.9688 64.4015 10.2292 63.5063 9.6875C62.6319 9.14583 61.5806 8.875 60.3523 8.875C59.1448 8.875 58.0934 9.14583 57.1982 9.6875C56.303 10.2292 55.616 10.9688 55.1372 11.9063C54.6584 12.8438 54.419 13.9063 54.419 15.0938C54.419 16.2604 54.648 17.3125 55.106 18.25C55.5848 19.1875 56.2614 19.9375 57.1358 20.5C58.031 21.0417 59.1031 21.3125 60.3523 21.3125Z" fill="#F471FF"/>
<path d="M72.668 23.4375V6.75H75.0413V11.75C75.2911 9.95833 75.9469 8.64583 77.0087 7.8125C78.0704 6.97917 79.5173 6.5625 81.3493 6.5625H81.9114V9.25H80.8497C79.1842 9.25 77.9039 9.69792 77.0087 10.5938C76.1135 11.4688 75.6659 12.7396 75.6659 14.4063V23.4375H72.668Z" fill="#F471FF"/>
<path d="M84.8081 23.4375V0.625001H88.8677L95.6129 15.8438H96.1126L102.827 0.625001H106.917V23.4375H103.857V4.53125L97.6115 18.7188H93.8642L87.6186 4.59375V23.4375H84.8081Z" fill="#F471FF"/>
<path d="M119.081 24C117.624 24 116.365 23.75 115.303 23.25C114.241 22.75 113.377 22.0938 112.711 21.2813C112.045 20.4479 111.545 19.5208 111.212 18.5C110.9 17.4792 110.744 16.4375 110.744 15.375V14.8125C110.744 13.7292 110.9 12.6771 111.212 11.6563C111.545 10.6354 112.045 9.71875 112.711 8.90625C113.377 8.07292 114.22 7.41667 115.24 6.9375C116.281 6.4375 117.499 6.1875 118.894 6.1875C120.705 6.1875 122.194 6.58333 123.36 7.375C124.546 8.14583 125.421 9.14583 125.983 10.375C126.566 11.6042 126.857 12.9167 126.857 14.3125V15.6563H113.617C113.721 17.3021 114.21 18.6667 115.084 19.75C115.959 20.8333 117.291 21.375 119.081 21.375C120.393 21.375 121.455 21.0833 122.267 20.5C123.099 19.9167 123.599 19.2396 123.766 18.4688H126.576C126.222 20.1979 125.379 21.5521 124.047 22.5312C122.714 23.5104 121.059 24 119.081 24ZM118.894 8.8125C117.395 8.8125 116.219 9.23958 115.365 10.0938C114.512 10.9271 113.97 12.0312 113.741 13.4062H123.922C123.734 11.9896 123.224 10.875 122.392 10.0625C121.559 9.22917 120.393 8.8125 118.894 8.8125Z" fill="#F471FF"/>
</svg>
